<svg xmlns="http://www.w3.org/2000/svg" width="334" height="199" viewBox="0 0 334 199" fill="none">
    <path d="M0.696439 189.396C0.268479 189.745 0.204524 190.375 0.553604 190.803L6.24231 197.777C6.59141 198.205 7.22131 198.269 7.6493 197.92C8.07726 197.571 8.14122 196.941 7.79214 196.513L2.73552 190.314L8.93475 185.257C9.36271 184.908 9.42667 184.278 9.07756 183.85C8.72848 183.422 8.09855 183.358 7.67059 183.707L0.696439 189.396ZM333.09 21.5221C322.588 9.19596 313.012 2.79668 303.796 1.23081C294.539 -0.341814 285.882 2.99796 277.329 9.5897C268.79 16.17 260.243 26.0734 251.153 37.8459C242.088 49.5867 232.327 63.3977 221.532 77.6291C178.208 134.749 116.633 200.87 1.42952 189.176L1.22752 191.166C117.523 202.971 179.699 136.093 223.126 78.8377C234.02 64.4753 243.634 50.8567 252.736 39.0682C261.814 27.3113 270.229 17.5858 278.549 11.1739C286.855 4.7734 294.956 1.75766 303.461 3.20256C312.005 4.6542 321.195 10.6455 331.567 22.8192L333.09 21.5221Z" fill="#2E2929" fill-opacity="0.65"/>
</svg>