<svg width="41" height="41" viewBox="0 0 41 41" fill="none"
    xmlns="http://www.w3.org/2000/svg">
    <path fill-rule="evenodd" clip-rule="evenodd" d="M33.737 20.4997C33.737 20.1599 33.602 19.834 33.3617 19.5937C33.1214 19.3534 32.7955 19.2184 32.4557 19.2184H8.53906C8.19925 19.2184 7.87336 19.3534 7.63308 19.5937C7.3928 19.834 7.25781 20.1599 7.25781 20.4997C7.25781 20.8395 7.3928 21.1654 7.63308 21.4057C7.87336 21.6459 8.19925 21.7809 8.53906 21.7809H32.4557C32.7955 21.7809 33.1214 21.6459 33.3617 21.4057C33.602 21.1654 33.737 20.8395 33.737 20.4997ZM33.737 11.958C33.737 11.6182 33.602 11.2923 33.3617 11.052C33.1214 10.8117 32.7955 10.6768 32.4557 10.6768H8.53906C8.19925 10.6768 7.87336 10.8117 7.63308 11.052C7.3928 11.2923 7.25781 11.6182 7.25781 11.958C7.25781 12.2978 7.3928 12.6237 7.63308 12.864C7.87336 13.1043 8.19925 13.2393 8.53906 13.2393H32.4557C32.7955 13.2393 33.1214 13.1043 33.3617 12.864C33.602 12.6237 33.737 12.2978 33.737 11.958ZM33.737 29.0413C33.737 28.7015 33.602 28.3756 33.3617 28.1354C33.1214 27.8951 32.7955 27.7601 32.4557 27.7601H8.53906C8.19925 27.7601 7.87336 27.8951 7.63308 28.1354C7.3928 28.3756 7.25781 28.7015 7.25781 29.0413C7.25781 29.3811 7.3928 29.707 7.63308 29.9473C7.87336 30.1876 8.19925 30.3226 8.53906 30.3226H32.4557C32.7955 30.3226 33.1214 30.1876 33.3617 29.9473C33.602 29.707 33.737 29.3811 33.737 29.0413Z" fill="black"/>
</svg>
