<svg xmlns="http://www.w3.org/2000/svg" width="75" height="75" viewBox="0 0 75 75" fill="none">
    <circle cx="37.5" cy="37.4917" r="37.4917" fill="#8B41DA" fill-opacity="0.13"/>
    <path d="M55.316 26.7797C45.1025 23.1489 34.001 22.849 23.6063 25.9231C23.1931 26.022 22.8041 26.2031 22.4625 26.4557C22.1209 26.7082 21.8336 27.027 21.6179 27.393C21.4022 27.7591 21.2625 28.1648 21.2071 28.586C21.1517 29.0072 21.1817 29.4353 21.2954 29.8446C21.8643 32.1278 22.6941 34.751 23.6908 37.1293C23.7079 37.185 23.7346 37.1582 23.7346 37.1026C23.5903 35.9872 24.4479 34.5788 26.1301 34.0666C34.2142 31.4938 42.9141 31.609 50.9272 34.3949C51.2228 34.496 51.5356 34.5369 51.8472 34.5152C52.1588 34.4934 52.463 34.4095 52.7416 34.2684C53.0203 34.1273 53.2679 33.9318 53.4698 33.6934C53.6717 33.4551 53.8239 33.1787 53.9173 32.8806C54.914 29.6725 55.316 27.4941 55.4155 26.9487C55.4326 26.8471 55.3428 26.8075 55.316 26.7797ZM30.674 33.8377C29.4495 34.0933 27.7566 34.4954 26.4862 34.9168C23.9464 35.7926 24.064 38.8832 25.4168 39.8691C25.5163 39.2959 26.1301 38.5164 26.8145 38.2533C29.35 37.2566 32.0727 36.661 34.8253 36.415C33.4266 35.8471 32.062 35.0333 30.6921 33.8367L30.674 33.8377ZM50.893 40.0253C47.2441 38.3108 43.2886 37.3452 39.2601 37.1856C35.2317 37.026 31.2121 37.6756 27.439 39.096C26.2295 39.5526 25.4724 41.0241 26.2295 42.4207C27.5522 44.812 29.0533 47.1003 30.7199 49.2659C30.4804 48.4361 30.9039 46.8994 32.5294 46.3967C37.0251 45.0151 41.7422 45.6011 44.8777 46.8705C45.7631 47.2266 47.0165 47.0106 47.7191 45.9583C48.9172 44.1125 50.007 42.1987 50.9829 40.2263C51.0267 40.1376 50.9829 40.0713 50.893 40.0253ZM43.6083 51.1042C42.2932 50.4401 41.0904 49.5737 40.044 48.5366C39.5596 48.0522 38.8463 47.356 38.0945 46.5261C36.3781 46.5261 34.712 46.6983 32.9304 47.2672C31.276 47.7848 31.121 49.6958 31.8449 50.6925C33.0694 52.2185 33.9281 53.042 35.298 54.4578C36.024 55.1699 36.9989 55.571 38.0158 55.576C39.0327 55.581 40.0115 55.1895 40.7445 54.4846C41.8139 53.4152 42.4715 52.7019 43.6799 51.332C43.7516 51.2593 43.7249 51.132 43.6083 51.1042Z" fill="#8B41DA"/>
</svg>