<svg width="75" height="75" viewBox="0 0 75 75" fill="none"
    xmlns="http://www.w3.org/2000/svg">
    <circle cx="37.4868" cy="37.4917" r="37.4917" fill="#0D60D9" fill-opacity="0.13"/>
    <path d="M37.9269 46.1811C36.9067 46.1813 35.9239 45.7972 35.1741 45.1054C34.4244 44.4135 33.9627 43.4647 33.8811 42.4478C31.1749 41.4898 28.894 39.6066 27.4412 37.1306C25.9884 34.6545 25.4571 31.7448 25.941 28.9151C26.4249 26.0854 27.893 23.5176 30.086 21.665C32.2791 19.8125 35.0561 18.7942 37.9269 18.79C40.9803 18.7896 43.9223 19.9366 46.1697 22.0036C48.4171 24.0705 49.8056 26.9066 50.0601 29.9493C50.0686 30.0813 50.0495 30.2136 50.0041 30.3378C49.9587 30.4621 49.8879 30.5755 49.7964 30.6709C49.7048 30.7663 49.5943 30.8416 49.4721 30.892C49.3498 30.9425 49.2184 30.9669 49.0862 30.9638C48.8144 30.957 48.5549 30.8494 48.358 30.6619C48.1612 30.4744 48.041 30.2205 48.021 29.9493C47.8403 28.1554 47.1847 26.442 46.1218 24.9856C45.0589 23.5292 43.6271 22.3824 41.9737 21.6632C40.3203 20.9441 38.5051 20.6785 36.715 20.894C34.9249 21.1094 33.2246 21.798 31.7891 22.889C30.3535 23.9799 29.2347 25.4337 28.5477 27.1007C27.8607 28.7677 27.6304 30.5877 27.8805 32.3733C28.1306 34.1588 28.852 35.8455 29.9705 37.2596C31.0891 38.6738 32.5643 39.7642 34.2443 40.4188C34.55 39.7583 35.0277 39.1921 35.6274 38.7797C36.2271 38.3672 36.9267 38.1236 37.6528 38.0745C38.379 38.0253 39.105 38.1723 39.7548 38.5002C40.4047 38.828 40.9543 39.3246 41.3463 39.9379C41.7382 40.5512 41.958 41.2586 41.9826 41.986C42.0072 42.7135 41.8357 43.4341 41.486 44.0724C41.1364 44.7108 40.6215 45.2434 39.9953 45.6144C39.3691 45.9853 38.6547 46.1811 37.9269 46.1811ZM27.8003 41.1087H27.9849C29.1828 42.2837 30.5793 43.2371 32.1098 43.9249C32.5596 45.4089 33.5589 46.6654 34.9037 47.4377C36.2484 48.21 37.8372 48.4399 39.3457 48.0805C40.8542 47.7211 42.1687 46.7995 43.0208 45.5038C43.8728 44.2081 44.1983 42.6361 43.9306 41.1087H48.0717C49.1479 41.1087 50.1801 41.5362 50.9411 42.2972C51.7021 43.0582 52.1296 44.0904 52.1296 45.1666C52.1296 48.5976 50.4395 51.1845 47.7978 52.8706C45.1967 54.5282 41.6906 55.3114 37.9269 55.3114C34.1631 55.3114 30.6571 54.5282 28.056 52.8706C25.4142 51.1865 23.7241 48.5955 23.7241 45.1666C23.7241 42.9083 25.5563 41.1087 27.8003 41.1087ZM46.0427 30.9638C46.0432 32.3367 45.6953 33.6873 45.0318 34.8891C44.3682 36.091 43.4106 37.1049 42.2486 37.8359C41.6826 37.2656 41.0094 36.8129 40.2677 36.504C39.5259 36.1951 38.7304 36.0361 37.9269 36.0362C37.1234 36.0361 36.3278 36.1951 35.5861 36.504C34.8443 36.8129 34.1711 37.2656 33.6052 37.8359C32.064 36.8667 30.8935 35.4075 30.2817 33.6928C29.9696 32.8168 29.8104 31.8937 29.811 30.9638C29.811 28.8114 30.6661 26.7471 32.1881 25.225C33.7101 23.703 35.7744 22.848 37.9269 22.848C40.0793 22.848 42.1436 23.703 43.6657 25.225C45.1877 26.7471 46.0427 28.8114 46.0427 30.9638Z" fill="#0D60D9"/>
</svg>
