<svg width="75" height="75" viewBox="0 0 75 75" fill="none" xmlns="http://www.w3.org/2000/svg">
<circle cx="37.5132" cy="37.4917" r="37.4917" fill="#53BB81" fill-opacity="0.13"/>
<path d="M26.7062 30.2873C26.7062 26.3069 29.9302 23.083 33.9105 23.083C37.8909 23.083 41.1148 26.3069 41.1148 30.2873C41.1148 34.2677 37.8909 37.4916 33.9105 37.4916C29.9302 37.4916 26.7062 34.2677 26.7062 30.2873ZM37.5127 48.6583C37.5127 46.9292 38.4132 45.3083 39.674 44.2276V43.7954C39.674 43.0929 39.8001 42.4265 39.9982 41.7782C38.1431 41.3459 36.0898 41.0937 33.9105 41.0937C25.9498 41.0937 19.502 44.3177 19.502 48.298V51.9002H37.5127V48.6583ZM55.5234 48.8384V55.1421C55.5234 56.2228 54.4428 57.3034 53.182 57.3034H43.2761C42.1955 57.3034 41.1148 56.2228 41.1148 54.962V48.6583C41.1148 47.5776 42.1955 46.497 43.2761 46.497V43.7954C43.2761 41.2739 45.7976 39.2927 48.3191 39.2927C50.8406 39.2927 53.3621 41.2739 53.3621 43.7954V46.497C54.4428 46.497 55.5234 47.5776 55.5234 48.8384ZM51.0207 43.7954C51.0207 42.3545 49.76 41.454 48.3191 41.454C46.8783 41.454 45.6175 42.3545 45.6175 43.7954V46.497H51.0207V43.7954Z" fill="#53BB81"/>
</svg>
