<svg xmlns="http://www.w3.org/2000/svg" width="207" height="21" viewBox="0 0 207 21" fill="none">
    <path d="M62.9648 1.90234C108.238 5.40922 98.9289 3.0499 144.269 4.12999C162.099 4.55474 179.934 4.97934 197.758 5.75653C200.134 5.86013 206.473 4.49825 204.847 6.78196C204.847 6.78196 200.859 9.13803 199.584 9.3632C181.305 12.5908 161.881 11.6843 143.597 11.9444C101.541 12.5429 59.4782 12.4041 17.4199 12.4041C13.5494 12.4041 9.66376 12.3071 5.79299 12.4395C4.72248 12.4761 1.80712 12.4558 2.6513 13.3235C4.97748 15.7143 16.4613 14.8964 17.0977 14.9147C37.7317 15.5079 58.381 15.6943 79.0184 15.9401C103.257 16.2288 132.075 19.4053 156.314 19.4053" stroke="#0B489D" stroke-width="3.18236" stroke-linecap="square"/>
</svg>